<svg width="114" height="44" viewBox="0 0 114 44" fill="none" xmlns="http://www.w3.org/2000/svg">
<path fill-rule="evenodd" clip-rule="evenodd" d="M84.5825 33.2173C76.2758 39.7628 64.2267 43.2287 53.8567 43.2287C40.0052 43.2996 26.6275 37.8493 16.3427 27.9446C15.5611 27.2105 16.2355 26.1855 17.1733 26.7576C28.6087 33.7371 41.5549 37.4036 54.7276 37.3935C64.5688 37.3411 74.3034 35.2139 83.3722 31.134C84.7835 30.5094 85.958 32.1303 84.5825 33.2173Z" fill="#FF9900"/>
<path fill-rule="evenodd" clip-rule="evenodd" d="M88.0392 29.003C86.9763 27.5728 81.0142 28.3165 78.3346 28.6597C77.5218 28.7646 77.3968 28.0066 78.1292 27.4583C82.8855 23.8924 90.6785 24.9221 91.5851 26.114C92.4917 27.3058 91.344 35.6486 86.887 39.6389C86.1992 40.2491 85.5472 39.9249 85.8553 39.1145C86.8557 36.44 89.1021 30.457 88.0392 29.003Z" fill="#FF9900"/>
<path d="M13.244 22.692C13.44 22.636 13.552 22.524 13.552 22.384C13.552 21.74 13.02 21.964 13.02 18.016V9.28C13.02 8.804 12.964 8.692 12.824 8.692C12.712 8.692 12.432 8.776 12.348 8.776L9.996 9.252C9.66 9.336 9.464 9.364 9.464 9.756V19.668C9.1 19.92 8.176 20.536 7 20.536C5.572 20.536 5.432 19.248 5.432 18.184V9.28C5.432 8.804 5.376 8.692 5.208 8.692C5.124 8.692 4.844 8.776 4.76 8.776L2.408 9.252C2.072 9.336 1.876 9.364 1.876 9.756V19.388C1.876 22.776 3.976 23.476 5.516 23.476C7.728 23.476 9.044 22.496 9.8 21.824C10.108 22.944 10.332 23.476 10.696 23.476C10.808 23.476 10.948 23.448 11.116 23.392L13.244 22.692ZM26.5191 20.648C26.5471 20.592 26.6311 20.48 26.6311 20.34C26.6311 20.256 26.6311 20.06 26.0991 20.06H19.7151L26.0431 11.632V9.448C26.0431 9.28 25.7911 9.168 25.5671 9.168H16.6911C16.3831 9.168 16.2991 9.28 16.2991 9.56V11.744C16.2991 11.94 16.3551 12.108 16.4951 12.108H22.1511L15.7111 20.62V22.72C15.7111 22.888 15.8231 23 15.9911 23H25.3151C25.4271 23 25.6231 22.86 25.7071 22.636L26.5191 20.648ZM32.6729 12.444C33.0369 12.136 33.6529 11.492 34.6049 11.492C36.7329 11.492 37.1249 13.648 37.1249 15.888C37.1249 18.072 36.6209 20.676 34.0729 20.676C33.3169 20.676 32.8409 20.228 32.6729 20.088V12.444ZM32.6729 3.316C32.6729 2.84 32.6169 2.728 32.3929 2.728C32.3369 2.728 32.0849 2.812 32.0009 2.812L29.6489 3.288C29.3129 3.372 29.1169 3.372 29.1169 3.792V19.444C29.1169 20.032 29.1169 20.62 29.0049 21.18C28.8089 22.132 28.5009 22.384 28.5009 22.636C28.5009 22.748 28.6409 22.832 28.7809 22.86L31.0209 23.42C31.1329 23.448 31.2729 23.476 31.4129 23.476C31.8329 23.476 32.1129 22.552 32.2249 22.244C32.6729 22.692 33.2889 23.476 34.8849 23.476C38.6369 23.476 40.6809 20.452 40.6809 15.692C40.6809 12.052 39.5889 8.692 35.7809 8.692C34.2409 8.692 33.2329 9.504 32.6729 9.924V3.316ZM53.648 19.836C53.592 19.724 53.48 19.612 53.34 19.612C52.948 19.612 51.8 20.536 49.784 20.536C47.152 20.536 46.704 18.604 46.704 17.036H54.236C54.768 17.036 54.88 16.868 54.88 16.336C54.88 12.948 54.04 8.692 49.28 8.692C45.528 8.692 43.148 11.772 43.148 16.224C43.148 21.376 45.724 23.476 49.42 23.476C51.632 23.476 54.432 22.552 54.432 21.824C54.432 21.712 54.404 21.6 54.348 21.516L53.648 19.836ZM46.704 14.432C46.788 13.648 46.9 11.296 49.084 11.296C51.016 11.296 51.1 13.284 51.1 14.432H46.704ZM64.736 15.244L69.272 10.82C69.412 10.68 69.524 10.568 69.524 10.456C69.524 10.344 69.496 10.26 69.384 10.148L67.984 9C67.76 8.832 67.648 8.692 67.48 8.692C67.396 8.692 67.172 8.86 67.088 8.972L61.712 14.404V3.316C61.712 2.84 61.656 2.728 61.488 2.728C61.404 2.728 61.124 2.784 61.04 2.812L58.688 3.288C58.352 3.344 58.156 3.4 58.156 3.792V22.608C58.156 22.916 58.212 23 58.548 23H61.32C61.656 23 61.712 22.916 61.712 22.608V16.504H61.768L66.892 23.196C66.976 23.308 67.116 23.476 67.228 23.476C67.34 23.476 67.452 23.42 67.564 23.364L69.944 22.048C70.056 21.992 70.084 21.908 70.084 21.796C70.084 21.684 69.972 21.516 69.832 21.376L64.736 15.244ZM81.9995 20.648C82.0275 20.592 82.1115 20.48 82.1115 20.34C82.1115 20.256 82.1115 20.06 81.5795 20.06H75.1955L81.5235 11.632V9.448C81.5235 9.28 81.2715 9.168 81.0475 9.168H72.1715C71.8635 9.168 71.7795 9.28 71.7795 9.56V11.744C71.7795 11.94 71.8355 12.108 71.9755 12.108H77.6315L71.1915 20.62V22.72C71.1915 22.888 71.3035 23 71.4715 23H80.7955C80.9075 23 81.1035 22.86 81.1875 22.636L81.9995 20.648ZM89.6934 20.676C87.7334 20.676 87.3974 18.688 87.3974 16.084C87.3974 13.48 87.7614 11.492 89.6934 11.492C91.6254 11.492 91.9894 13.48 91.9894 16.084C91.9894 18.716 91.6534 20.676 89.6934 20.676ZM95.7694 16.084C95.7694 11.576 93.4454 8.692 89.6934 8.692C85.9134 8.692 83.6174 11.576 83.6174 16.084C83.6174 20.592 85.9134 23.476 89.6934 23.476C93.4734 23.476 95.7694 20.592 95.7694 16.084ZM110.037 12.78C110.037 9.392 107.937 8.692 106.397 8.692C104.185 8.692 102.925 9.896 102.113 10.624C101.805 9.308 101.581 8.692 101.217 8.692C101.105 8.692 100.965 8.72 100.797 8.776L98.6689 9.476C98.4729 9.532 98.3609 9.644 98.3609 9.784C98.3609 10.428 98.8929 10.204 98.8929 14.152V22.608C98.8929 22.916 98.9489 23 99.2849 23H102.057C102.393 23 102.449 22.916 102.449 22.608V12.78C102.813 12.444 103.737 11.632 104.913 11.632C106.341 11.632 106.481 12.92 106.481 13.984V22.608C106.481 22.916 106.537 23 106.873 23H109.645C109.981 23 110.037 22.916 110.037 22.608V12.78Z" fill="black"/>
</svg>
